<?xml version="1.0" encoding="UTF-8"?>
<svg width="14px" height="14px" viewBox="0 0 14 14" version="1.1" xmlns="http://www.w3.org/2000/svg" xmlns:xlink="http://www.w3.org/1999/xlink">
    <title>clock (1)</title>
    <g id="Page-1" stroke="none" stroke-width="1" fill="none" fill-rule="evenodd">
        <g id="Careers-Concept-1" transform="translate(-503.000000, -4699.000000)" fill="#FFFFFF" fill-rule="nonzero">
            <g id="Careers" transform="translate(274.000000, 3349.000000)">
                <g id="Group-14" transform="translate(0.000000, 1225.000000)">
                    <g id="Group-8" transform="translate(209.000000, 112.000000)">
                        <g id="clock-(1)" transform="translate(20.000000, 13.000000)">
                            <path d="M7,0 C3.13400675,0 0,3.13400675 0,7 C0,10.8659932 3.13400675,14 7,14 C10.8659932,14 14,10.8659932 14,7 C13.9954414,3.13589656 10.8641034,0.00455859133 7,0 L7,0 Z M7,12.7272727 C3.83691461,12.7272727 1.27272727,10.1630854 1.27272727,7 C1.27272727,3.83691461 3.83691461,1.27272727 7,1.27272727 C10.1630854,1.27272727 12.7272727,3.83691461 12.7272727,7 C12.7234158,10.1614864 10.1614864,12.7234158 7,12.7272727 L7,12.7272727 Z" id="Shape"></path>
                            <path d="M7.63636364,6.73654545 L7.63636364,3.18181818 C7.63636364,2.83036425 7.35145393,2.54545455 7,2.54545455 C6.64854607,2.54545455 6.36363636,2.83036425 6.36363636,3.18181818 L6.36363636,7 C6.36367241,7.16876034 6.43074131,7.33059553 6.55009091,7.44990909 L8.45918182,9.359 C8.70887747,9.60016413 9.10578122,9.59671515 9.35124818,9.35124818 C9.59671515,9.10578122 9.60016413,8.70887747 9.359,8.45918182 L7.63636364,6.73654545 Z" id="Path"></path>
                        </g>
                    </g>
                </g>
            </g>
        </g>
    </g>
</svg>