<?xml version="1.0" encoding="UTF-8"?>
<svg width="31px" height="18px" viewBox="0 0 31 18" version="1.1" xmlns="http://www.w3.org/2000/svg" xmlns:xlink="http://www.w3.org/1999/xlink">
    <!-- Generator: Sketch 57.1 (83088) - https://sketch.com -->
    <title>9151145_handshake_congratulations_congrats_collaboration_partnership_icon</title>
    <desc>Created with Sketch.</desc>
    <g id="Page-1" stroke="none" stroke-width="1" fill="none" fill-rule="evenodd">
        <g id="9151145_handshake_congratulations_congrats_collaboration_partnership_icon">
            <polyline id="path13545" stroke="#5ADAFD" points="8.5000005 2.75 10.5 3.75 12.500001 3.75"></polyline>
            <path d="M22,3.25 L21.347919,3.576 C21.1241282,3.6878569 20.8665374,3.71176291 20.625984,3.643 L17.769333,2.8269 C17.5906524,2.77583156 17.4057262,2.7499 17.219891,2.7499 L14.070368,2.7499 C13.4016618,2.7499 12.7771994,3.08410269 12.406268,3.6405 L10,7.25 L12.464817,7.25 C12.7991705,7.25000019 13.1114021,7.08289895 13.296868,6.8047 L13.703134,6.1953 C13.8885999,5.91710105 14.2008315,5.74999981 14.535185,5.75 L15.197225,5.75 C15.3946451,5.74998512 15.5876527,5.80840573 15.751926,5.9179 L23.400553,11.017 C23.6864209,11.2075712 23.8812484,11.5074028 23.9392529,11.8460373 C23.9972573,12.1846717 23.9133246,12.532252 23.707178,12.8071 L23.676418,12.8481 C23.292094,13.3605566 22.5825799,13.499556 22.033299,13.17 L18,10.75" id="path13547" stroke="#5ADAFD" stroke-width="1.00157475" stroke-linecap="round" stroke-linejoin="round"></path>
            <path d="M23.500001,10.75 L25.500001,8.25" id="path13549" stroke="#5ADAFD"></path>
            <path d="M7.0000003,10.75 L5.0000003,8.75" id="path13551" stroke="#5ADAFD"></path>
            <polyline id="path13553" stroke="#5ADAFD" stroke-linecap="round" stroke-linejoin="round" points="9.9961731 0.756 4.0024993 10.25 0.50618895 8.2513"></polyline>
            <path d="M11.005794,10.4071 L11.058934,10.4421 C11.514382,10.74 11.639681,11.3462 11.339872,11.8012 L9.3576114,14.8096 C9.0578079,15.2646 8.4497884,15.391 7.9943409,15.0931 L7.9412019,15.0581 C7.4857544,14.7601 7.3604554,14.154 7.6602588,13.699 L9.6425193,10.6906 C9.9423283,10.2356 10.550348,10.1091 11.005795,10.4071 L11.005794,10.4071 Z" id="rect13555" stroke="#5ADAFD" stroke-width="1.0000025" stroke-linecap="round" stroke-linejoin="round"></path>
            <path d="M12.15215,12.3613 C12.615713,12.6646 12.744681,13.282 12.441318,13.7456 L11.072399,15.8375 C10.769036,16.301 10.151618,16.43 9.6880557,16.1267 C9.2244931,15.8233 9.0955247,15.2059 9.3988876,14.7423 L10.767807,12.6505 C11.07117,12.1869 11.688588,12.0579 12.15215,12.3613 Z" id="rect13557" stroke="#5ADAFD" stroke-linecap="round" stroke-linejoin="round"></path>
            <path d="M13.485701,13.9064 C13.950714,14.2075 14.083352,14.8247 13.78309,15.2903 L12.892103,16.6719 C12.591841,17.1375 11.975758,17.2699 11.510745,16.9687 C11.045733,16.6676 10.913103,16.0504 11.213365,15.5848 L12.104352,14.2032 C12.404614,13.7376 13.020689,13.6052 13.485701,13.9064 L13.485701,13.9064 Z" id="rect13559" stroke="#5ADAFD" stroke-width="1.00000095" stroke-linecap="round" stroke-linejoin="round"></path>
            <path d="M8.6464572,10.393 C9.11147,10.6941 9.2441023,11.3113 8.9438458,11.7769 L8.0528536,13.1585 C7.7525971,13.6241 7.1365085,13.7565 6.6714956,13.4553 C6.2064828,13.1542 6.0738589,12.537 6.3741154,12.0714 L7.2651076,10.6898 C7.5653641,10.2242 8.1814443,10.0918 8.6464572,10.393 Z" id="rect13561" stroke="#5ADAFD" stroke-width="1.00000095" stroke-linecap="round" stroke-linejoin="round"></path>
            <polyline id="path13563" stroke="#5ADAFD" stroke-linecap="round" stroke-linejoin="round" points="21.003825 0.756 26.997497 10.25 30.493807 8.2513"></polyline>
            <path d="M22.251409,13.5262 L21.822139,14.1175 C21.3591565,14.7552659 20.4815862,14.9259867 19.813278,14.5083 L17.000001,12.75" id="path13565" stroke="#5ADAFD" stroke-width="1.00157475" stroke-linecap="round" stroke-linejoin="round"></path>
            <path d="M20.765166,15.0069 L20.322427,15.6169 C19.8544373,16.2616359 18.976064,16.4505791 18.284361,16.0553 L16.000001,14.75" id="path13567" stroke="#5ADAFD" stroke-width="1.00157475" stroke-linecap="round" stroke-linejoin="round"></path>
            <path d="M18.407481,16.2728 L17.969089,16.9428 C17.6520634,17.4273078 17.0402792,17.6254515 16.499402,17.4188 L13.500001,16.2728" id="path13569" stroke="#5ADAFD" stroke-width="1.00157475" stroke-linejoin="round"></path>
            <path d="M3.5000002,7.25 C3.5000002,7.52614237 3.27614257,7.75 3.0000002,7.75 C2.72385783,7.75 2.5000002,7.52614237 2.5000002,7.25 C2.5000002,6.97385763 2.72385783,6.75 3.0000002,6.75 C3.27614257,6.75 3.5000002,6.97385763 3.5000002,7.25 Z" id="circle13571" fill="#5ADAFD" fill-rule="nonzero"></path>
            <path d="M28.499996,7.25 C28.499996,7.52614237 28.2761384,7.75 27.999996,7.75 C27.7238536,7.75 27.499996,7.52614237 27.499996,7.25 C27.499996,6.97385763 27.7238536,6.75 27.999996,6.75 C28.2761384,6.75 28.499996,6.97385763 28.499996,7.25 Z" id="circle13573" fill="#5ADAFD" fill-rule="nonzero"></path>
        </g>
    </g>
</svg>