<?xml version="1.0" encoding="UTF-8"?>
<svg enable-background="new 0 0 250 26" version="1.1" viewBox="0 0 250 26" xml:space="preserve" xmlns="http://www.w3.org/2000/svg">
<style type="text/css">
	.st0{fill-rule:evenodd;clip-rule:evenodd;fill:#FFFFFF;}
	.st1{filter:url(#d);}
	.st2{mask:url(#b);fill-rule:evenodd;clip-rule:evenodd;fill:#FFFFFF;}
	.st3{filter:url(#c);}
	.st4{mask:url(#a);fill-rule:evenodd;clip-rule:evenodd;fill:#FFFFFF;}
</style>
<title>OI ABW</title>
<desc>Created with Sketch.</desc>

	<g transform="translate(-92 -15)">

			<g transform="translate(0)">
				<g transform="translate(92 15)">
					<g transform="translate(0 4.4118)">
						<path class="st0" d="m15.8 7.5c0 4.3-3.1 7.7-8 7.7-4.4 0-7.8-3.3-7.8-7.6 0-4.5 3.5-7.6 7.9-7.6s7.9 3.3 7.9 7.5m-7.9 4.9c2.6 0 4.5-2.1 4.5-4.7s-1.7-4.7-4.5-4.7c-2.8-0.1-4.5 2-4.5 4.6 0 2.7 1.9 4.8 4.5 4.8"/>
					</g>
					<path class="st0" d="m54 12c0 4.3-3.1 7.7-8 7.7-4.4 0-7.8-3.3-7.8-7.6 0-4.5 3.5-7.6 7.9-7.6s7.9 3.2 7.9 7.5m-7.9 4.8c2.6 0 4.5-2.1 4.5-4.7s-1.7-4.7-4.5-4.7c-2.7 0-4.5 2.1-4.5 4.7s1.8 4.7 4.5 4.7"/>
					<path class="st0" d="m71.3 13.5v-7.3c0.3-2.1 3.2-1 3.2-1v7.8c0 2.4 1.7 3.6 3.7 3.6 2.1 0 3.7-1.2 3.7-3.6v-6.9c0.3-2.1 3.2-1 3.2-1v5c0.4 6.2 6.4 6.7 6.4 6.7 5.9 0.8 5.4-1.6 5.4-1.6-0.2-1.2-1.1-1.5-2.6-1.7-1-0.1-1.8-0.2-1.8-0.2-6.3-0.4-5.7-4.6-5.7-4.6 0.1-3.5 3.9-4.1 3.9-4.1 3.3-0.6 5.7 0 5.7 0 5.2 1.1 2.6 3.6 2.2 3.7 0 0-1.4-1.3-4.6-1.5-4-0.3-3.9 1.6-3.9 1.6-0.1 1.4 1.6 1.6 1.6 1.6l4.3 0.6c5.1 0.7 4.4 4.3 4.4 4.3-0.3 4.5-5.7 4.5-5.7 4.5-7.3 0.4-10.1-3.4-10.1-3.4-1 2-3.1 3.4-6.5 3.4-4.1 0-6.9-2.3-6.9-6.4"/>
					<path class="st0" d="m23.8 4.7c-5.9 0.4-7.2 5.9-7 7.4-0.1 2.4 1.6 7.5 8.1 7.5 0.9 0 1.6-0.1 2.3-0.2v-2.9c-0.6 0.1-1.4 0.2-2.3 0.2-3 0.1-4.7-2.4-4.7-4.6 0-2.5 2.1-4.6 4.7-4.6h5.2v7.2s-0.4 6.1 7.3 4.8v-2.9c-4.3 0.9-4-1.8-4-1.8v-7.2h4v-2.9h-4v-3.4h-3.3v3.4h-6.3"/>
					<path class="st0" d="m58.2 24c-0.3 2.1-3.2 1-3.2 1v-12.9c0.2-4.1 2.7-7.5 7.7-7.6 4.5-0.1 7.7 3.2 7.7 7.5 0 4.5-3.1 7.9-7.8 7.7-1.7-0.1-3.3-0.7-4.4-2.2v6.5m4.4-7.2c2.6 0 4.4-2.1 4.4-4.7s-1.7-4.7-4.4-4.7-4.4 2.1-4.4 4.7 1.8 4.7 4.4 4.7"/>
					<path class="st0" d="m195.9 6.4c-1.1-1.2-2.7-1.8-4.4-1.8s-3.3 0.7-4.4 1.8c-0.5 0.5-0.9 1.1-1.1 1.8-0.3-0.7-0.6-1.3-1.1-1.8-1.1-1.2-2.7-1.8-4.4-1.8s-3.3 0.7-4.4 1.8-1.6 2.6-1.6 4.6v8h0.9v-8c0-1.8 0.4-3.1 1.4-4.1 0.9-1 2.4-1.6 3.8-1.6s2.8 0.6 3.8 1.6c0.9 1 1.4 2.3 1.4 4.1v8 0.1h0.9v-8c0-1.8 0.4-3.1 1.4-4.1 0.9-1 2.4-1.6 3.8-1.6s2.8 0.6 3.8 1.6c0.9 1 1.4 2.3 1.4 4.1v8h0.9v-8c-0.5-2.1-1-3.5-2.1-4.7"/>
					<path class="st0" d="m227.2 6.4c-1.1-1.2-2.7-1.8-4.4-1.8s-3.3 0.7-4.4 1.8-1.6 2.6-1.6 4.6v8h0.9v-8c0-1.8 0.4-3.1 1.4-4.1 0.9-1 2.4-1.6 3.8-1.6s2.8 0.6 3.8 1.6c0.9 1 1.4 2.3 1.4 4.1v8h0.9v-8c-0.2-2-0.7-3.4-1.8-4.6"/>
					<path class="st0" d="m149.7 16.4c-1.3 1.5-3 2.2-5.1 2.2-1.9 0-3.5-0.7-4.6-1.9s-1.6-2.9-1.6-4.7v-0.3h12.6v-0.1c-0.1-1.9-0.7-3.7-1.9-4.9-1.2-1.3-2.9-2-4.8-2-3.9 0-6.7 3.1-6.7 7.4 0 4.4 2.9 7.4 7.1 7.4 2.3 0 4.3-0.8 5.7-2.4l0.1-0.1-0.8-0.6zm-11.2-5.5c0.5-3.4 2.7-5.5 5.8-5.5 1.6 0 3 0.6 4 1.7 1 1 1.6 2.4 1.7 3.9h-11.5v-0.1z"/>
					<path class="st0" d="m212.7 16.4c-1.3 1.5-3 2.2-5.1 2.2-1.9 0-3.5-0.7-4.6-1.9s-1.6-2.9-1.6-4.7v-0.3h12.6v-0.1c-0.1-1.9-0.7-3.7-1.9-4.9-1.2-1.3-2.9-2-4.8-2-3.9 0-6.7 3.1-6.7 7.4 0 4.4 2.9 7.4 7.1 7.4 2.3 0 4.3-0.8 5.7-2.4l0.1-0.1-0.8-0.6zm-11.3-5.5c0.5-3.4 2.7-5.5 5.8-5.5 1.6 0 3 0.6 4 1.7 1 1 1.6 2.4 1.7 3.9h-11.5v-0.1z"/>
					<g transform="translate(104.41)">

						<defs>
							<filter id="d" x="18.7" y="4.9" width="13.4" height="14.2" filterUnits="userSpaceOnUse">
								<feColorMatrix values="1 0 0 0 0  0 1 0 0 0  0 0 1 0 0  0 0 0 1 0"/>
							</filter>
						</defs>
						<mask id="b" x="18.7" y="4.9" width="13.4" height="14.2" maskUnits="userSpaceOnUse">
							<g class="st1">
								<polygon class="st0" points="0.4 0.1 32.1 0.1 32.1 19.1 0.4 19.1"/>
							</g>
						</mask>
						<polyline class="st2" points="31.2 4.9 25.4 17.6 19.6 4.9 18.7 4.9 25.2 19.1 25.7 19.1 32.1 4.9 31.2 4.9"/>
						<defs>
							<filter id="c" x=".4" y=".1" width="1.6" height="1.6" filterUnits="userSpaceOnUse">
								<feColorMatrix values="1 0 0 0 0  0 1 0 0 0  0 0 1 0 0  0 0 0 1 0"/>
							</filter>
						</defs>
						<mask id="a" x="0.4" y="0.1" width="1.6" height="1.6" maskUnits="userSpaceOnUse">
							<g class="st3">
								<polygon class="st0" points="0.4 0.1 32.1 0.1 32.1 19.1 0.4 19.1"/>
							</g>
						</mask>
						<path class="st4" d="M1.2,0.1C1.6,0.1,2,0.4,2,0.9S1.6,1.7,1.2,1.7S0.4,1.3,0.4,0.9S0.7,0.1,1.2,0.1"/>
					</g>
					<polygon class="st0" points="105.1 19.1 106 19.1 106 4.9 105.1 4.9"/>
					<path class="st0" d="m157.9 11.3c-1.9-0.6-3.8-1.2-3.8-3 0-1.9 1.8-2.9 3.5-2.9 1.4 0 2.6 0.4 3.7 1.4l0.1 0.1 0.6-0.6-0.1-0.1c-1-0.8-2.2-1.5-4.2-1.5-2.6 0-4.4 1.5-4.4 3.7 0 2.4 2.2 3.1 4.3 3.8s4 1.3 4 3.4c0 2-1.9 3.2-3.7 3.2s-3-0.5-4.5-1.9l-0.1-0.1-0.6 0.6 0.1 0.1c1.4 1.4 3.1 2.1 5.1 2.1 2.6 0 4.6-1.7 4.6-3.9-0.1-2.9-2.5-3.7-4.6-4.4"/>
					<path class="st0" d="m245.4 11.3c-1.9-0.6-3.8-1.2-3.8-3 0-1.9 1.8-2.9 3.5-2.9 1.4 0 2.6 0.4 3.7 1.4l0.1 0.1 0.6-0.6-0.1-0.1c-1-0.8-2.2-1.5-4.2-1.5-2.6 0-4.4 1.5-4.4 3.7 0 2.4 2.2 3.1 4.3 3.8s4 1.3 4 3.4c0 2-1.9 3.2-3.7 3.2s-3-0.5-4.5-1.9l-0.1-0.1-0.6 0.6 0.1 0.1c1.4 1.4 3.1 2.1 5.1 2.1 2.6 0 4.6-1.7 4.6-3.9 0-2.9-2.4-3.7-4.6-4.4"/>
					<path class="st0" d="m120.1 6.4c-1.1-1.2-2.7-1.8-4.4-1.8s-3.3 0.7-4.4 1.8-1.6 2.6-1.6 4.6v8h0.9v-8c0-1.8 0.4-3.1 1.4-4.1 0.9-1 2.4-1.6 3.8-1.6s2.8 0.6 3.8 1.6c0.9 1 1.4 2.3 1.4 4.1v8h0.9v-8c-0.2-2-0.7-3.4-1.8-4.6"/>
					<path class="st0" d="m172.3 5.7v-0.8h-5.7v-4h-0.9v12c0 2 0.5 3.5 1.6 4.6 1.1 1.2 2.7 1.8 4.4 1.8h0.1v-0.8h-0.1c-1.4 0-2.8-0.6-3.8-1.6-0.9-1-1.4-2.3-1.4-4.1v-7.1h5.8"/>
					<path class="st0" d="m238.8 5.7v-0.8h-5.7v-4h-0.9v12c0 2 0.5 3.5 1.6 4.6 1.1 1.2 2.7 1.8 4.4 1.8h0.1v-0.8h-0.1c-1.4 0-2.8-0.6-3.8-1.6-0.9-1-1.4-2.3-1.4-4.1v-7.1h5.8"/>
				</g>
			</g>

	</g>

</svg>
