<?xml version="1.0" encoding="UTF-8"?>
<svg width="12px" height="14.8px" viewBox="0 0 12 14.8" version="1.1" xmlns="http://www.w3.org/2000/svg" xmlns:xlink="http://www.w3.org/1999/xlink">
    <title>pin (2)</title>
    <g id="Page-1" stroke="none" stroke-width="1" fill="none" fill-rule="evenodd">
        <g id="Careers-Concept-1" transform="translate(-295.000000, -4699.000000)" fill="#FFFFFF" fill-rule="nonzero">
            <g id="Careers" transform="translate(274.000000, 3349.000000)">
                <g id="Group-14" transform="translate(0.000000, 1225.000000)">
                    <g id="Group-8" transform="translate(1.000000, 112.000000)">
                        <g id="pin-(2)" transform="translate(20.000000, 13.000000)">
                            <path d="M6,0 C2.68632723,0 3.21334959e-05,2.65046918 3.21334959e-05,5.91998861 C-0.00487316813,7.39321483 0.551992374,8.81437684 1.56004787,9.90118096 L5.71500307,14.6704718 C5.78624789,14.7526732 5.89037961,14.8 6,14.8 C6.10962039,14.8 6.21375211,14.7526732 6.28499693,14.6704718 L10.4399521,9.90118096 C11.4480076,8.81437684 12.0048732,7.39321483 11.9999679,5.91998861 C11.9999679,2.65046918 9.31367277,0 6,0 L6,0 Z M9.86995827,9.42018188 L6,13.8638733 L2.13004173,9.42388188 C0.210764093,7.35809217 0.304620641,4.1608397 2.34186311,2.20812058 C4.37910558,0.255401455 7.62089442,0.255401455 9.65813689,2.20812058 C11.6953794,4.1608397 11.7892359,7.35809217 9.86995827,9.42388188 L9.86995827,9.42018188 Z" id="Shape"></path>
                            <path d="M5.8,3.2 C4.36405965,3.2 3.2,4.36405965 3.2,5.8 C3.2,7.23594035 4.36405965,8.4 5.8,8.4 C7.23594035,8.4 8.4,7.23594035 8.4,5.8 C8.4,4.36405965 7.23594035,3.2 5.8,3.2 L5.8,3.2 Z M5.8,7.65714286 C4.77432832,7.65714286 3.94285714,6.82567168 3.94285714,5.8 C3.94285714,4.77432832 4.77432832,3.94285714 5.8,3.94285714 C6.82567168,3.94285714 7.65714286,4.77432832 7.65714286,5.8 C7.65714286,6.82567168 6.82567168,7.65714286 5.8,7.65714286 Z" id="Shape"></path>
                        </g>
                    </g>
                </g>
            </g>
        </g>
    </g>
</svg>