<?xml version="1.0" encoding="UTF-8"?>
<svg width="100px" height="101px" viewBox="0 0 100 101" version="1.1" xmlns="http://www.w3.org/2000/svg" xmlns:xlink="http://www.w3.org/1999/xlink">
    <g id="Page-1" stroke="none" stroke-width="1" fill="none" fill-rule="evenodd">
        <g id="4202085_linkedin_logo_social_social-media_icon" transform="translate(0.000000, 0.000000)" fill="#1B80E4" fill-rule="nonzero">
            <rect id="Rectangle" x="0.0830543933" y="31.4393305" width="22.325523" height="68.8221757"></rect>
            <path d="M83.2194561,32.2464435 C82.9824268,32.1721757 82.7577406,32.0910042 82.5089958,32.0209205 C82.208159,31.9525105 81.9096234,31.8953975 81.6035565,31.8466527 C80.4190377,31.6083682 79.1192469,31.4393305 77.5976987,31.4393305 C64.5828452,31.4393305 56.3261506,40.93159 53.6073222,44.5972803 L53.6073222,31.4393305 L31.28159,31.4393305 L31.28159,100.261506 L53.607113,100.261506 L53.607113,62.7223849 C53.607113,62.7223849 70.4780335,39.1600418 77.5974895,56.4648536 L77.5974895,100.261506 L99.9171548,100.261506 L99.9171548,53.8194561 C99.9171548,43.4202929 92.8094142,34.7552301 83.2194561,32.2464435 L83.2194561,32.2464435 Z" id="Path"></path>
            <path d="M21.9223849,11.1056485 C21.9223849,17.1535565 17.032636,22.0548117 11.0029289,22.0548117 C4.97280335,22.0548117 0.0832635983,17.1533473 0.0832635983,11.1056485 C0.0832635983,5.05899582 4.97280335,0.156903766 11.0029289,0.156903766 C17.032636,0.156903766 21.9223849,5.05899582 21.9223849,11.1056485 L21.9223849,11.1056485 Z" id="Path"></path>
        </g>
    </g>
</svg>